<svg width="94" height="98" viewBox="0 0 94 98" fill="none" xmlns="http://www.w3.org/2000/svg">
<path d="M93.15 59.5323C93.9493 56.1895 87.7436 52.0695 87.7908 48.7737C87.8166 45.3848 94.1659 41.2491 93.461 38.0003C92.766 34.7098 85.358 33.7958 83.9435 30.7803C82.5291 27.7648 86.5207 21.2779 84.4807 18.6914C82.4507 16.0631 75.3359 18.4793 72.743 16.3826C70.1914 14.2954 71.0312 6.77334 68.0207 5.32985C65.0927 3.90541 59.6901 9.18525 56.3858 8.42356C53.0815 7.66188 50.6876 0.540775 47.4199 0.537058C44.0597 0.556085 41.4025 7.65918 38.1815 8.37164C34.9092 9.11638 29.6228 3.88569 26.6237 5.31063C23.6145 6.77736 24.259 14.2888 21.6256 16.3712C18.9923 18.4536 11.9439 16.0353 9.83017 18.6784C7.72644 21.2797 11.5479 27.7158 10.0251 30.8038C8.57362 33.7759 1.15897 34.7121 0.349667 38.0967C-0.45963 41.4814 5.75607 45.5595 5.70889 48.8553C5.68303 52.2442 -0.666276 56.38 0.0486623 59.5869C0.743617 62.8775 8.15168 63.7915 9.56611 66.807C10.9805 69.8225 6.98896 76.3093 9.02893 78.8959C11.0589 81.5242 18.1737 79.108 20.7666 81.2047C23.3182 83.2919 22.4784 90.8139 25.489 92.2574C28.4169 93.6819 33.8195 88.402 37.1238 89.1637C40.4282 89.9254 42.8733 97.0142 46.141 97.018C49.5013 96.9989 52.1584 89.8958 55.3794 89.1834C58.6517 88.4386 63.9381 93.6693 66.9373 92.2444C69.9464 90.7777 69.3019 83.2662 71.9353 81.1838C74.5687 79.1014 81.617 81.5197 83.7408 78.8348C85.8445 76.2335 82.023 69.7974 83.5358 66.7512C84.9873 63.7791 92.402 62.843 93.2113 59.4583L93.15 59.5323Z" fill="url(#paint0_linear_4695_23891)"/>
<defs>
<linearGradient id="paint0_linear_4695_23891" x1="4.62266" y1="-68.3072" x2="59.8267" y2="138.944" gradientUnits="userSpaceOnUse">
<stop stop-color="#A855F7"/>
<stop offset="0.568688" stop-color="#871EEB"/>
<stop offset="1" stop-color="#A855F7"/>
</linearGradient>
</defs>
</svg>
