<svg width="61" height="60" viewBox="10 10 51 50" fill="none" xmlns="http://www.w3.org/2000/svg">
    <g filter="url(#filter0_d_4695_23836)">
        <path d="M49.1957 10H21.8043C15.5611 10 10.5 15.0611 10.5 21.3043V48.6957C10.5 54.9389 15.5611 60 21.8043 60H49.1957C55.4389 60 60.5 54.9389 60.5 48.6957V21.3043C60.5 15.0611 55.4389 10 49.1957 10Z" fill="url(#paint0_linear_4695_23836)"/>
    </g>
    <mask id="mask0_4695_23836" style="mask-type:luminance" maskUnits="userSpaceOnUse" x="31" y="28" width="27" height="14">
        <path d="M55.5579 28.9395H33.6777C32.3747 28.9395 31.3184 29.9958 31.3184 31.2988V39.2463C31.3184 40.5493 32.3747 41.6056 33.6777 41.6056H55.5579C56.8609 41.6056 57.9172 40.5493 57.9172 39.2463V31.2988C57.9172 29.9958 56.8609 28.9395 55.5579 28.9395Z" fill="white"/>
    </mask>
    <g mask="url(#mask0_4695_23836)">
        <path fill-rule="evenodd" clip-rule="evenodd" d="M33.664 28.9453C32.361 28.9453 31.3047 30.0016 31.3047 31.3046V39.2325C31.3047 40.5355 32.361 41.5918 33.664 41.5918H55.5567C56.8597 41.5918 57.916 40.5355 57.916 39.2325V31.3046C57.916 30.0016 56.8597 28.9453 55.5567 28.9453H33.664ZM37.0933 38.4395V32.3092H39.3296V31.2356H37.0933H35.7376H33.526V32.3092H35.7376V38.4395H37.0933ZM42.9714 37.8866C42.8129 38.0835 42.6166 38.2397 42.3824 38.3553C42.1284 38.4773 41.8282 38.5384 41.4819 38.5384C41.218 38.5384 40.9772 38.5021 40.7595 38.4295C40.5418 38.3537 40.3538 38.2366 40.1955 38.0783C40.0405 37.9167 39.9201 37.7105 39.8343 37.4598C39.7485 37.2058 39.7057 36.9007 39.7057 36.5445V33.086H41.0119V36.5543C41.0119 36.7325 41.0316 36.8809 41.0712 36.9997C41.1141 37.1184 41.1718 37.2157 41.2444 37.2916C41.3203 37.3641 41.4077 37.4169 41.5066 37.4499C41.6089 37.4796 41.7177 37.4944 41.8332 37.4944C42.1499 37.4944 42.3989 37.4317 42.5803 37.3064C42.7308 37.2016 42.8462 37.0684 42.9266 36.9067V33.086H44.2427V38.4395H43.0058L42.9714 37.8866ZM46.6819 38.4395V34.6448C46.7119 34.5875 46.7448 34.533 46.7809 34.4813C46.8831 34.3395 47.0084 34.229 47.1569 34.1498C47.3086 34.0673 47.4851 34.0261 47.6863 34.0261C47.8809 34.0261 48.0442 34.0558 48.1761 34.1151C48.3114 34.1745 48.4136 34.2751 48.4829 34.4169C48.5555 34.5588 48.5917 34.7518 48.5917 34.9959V38.4395H49.9078V35.0057C49.9078 34.633 49.8666 34.3196 49.7841 34.0657C49.705 33.8084 49.5895 33.6006 49.4378 33.4422C49.2894 33.2839 49.1112 33.1685 48.9034 33.0959C48.6957 33.0233 48.4631 32.9871 48.2058 32.9871C47.8892 32.9871 47.6022 33.0481 47.3449 33.1701C47.0876 33.2922 46.865 33.467 46.677 33.6946C46.667 33.7068 46.6572 33.7192 46.6475 33.7317L46.6028 33.086H45.3757V38.4395H46.6819ZM52.3718 38.3405C52.695 38.4724 53.0595 38.5384 53.4652 38.5384C53.8148 38.5384 54.1232 38.4922 54.3904 38.3999C54.6576 38.3042 54.8852 38.1805 55.0732 38.0288C55.2646 37.8771 55.4163 37.7187 55.5284 37.5538L54.8704 36.871C54.7054 37.0821 54.5108 37.2421 54.2865 37.3509C54.0655 37.4565 53.8182 37.5093 53.5444 37.5093C53.3267 37.5093 53.1321 37.4713 52.9605 37.3955C52.7923 37.3163 52.6472 37.2075 52.5251 37.0689C52.4064 36.9271 52.3157 36.7605 52.253 36.5692C52.2129 36.4398 52.1863 36.303 52.1733 36.1585H55.6373V35.6094C55.6373 35.2201 55.5878 34.8655 55.4888 34.5456C55.3899 34.2224 55.2431 33.9453 55.0485 33.7144C54.8539 33.4835 54.6114 33.3054 54.3212 33.18C54.0309 33.0514 53.6961 32.9871 53.3168 32.9871C52.9506 32.9871 52.6159 33.053 52.3124 33.185C52.0089 33.3169 51.7484 33.5049 51.5307 33.749C51.313 33.9931 51.1447 34.285 51.026 34.6248C50.9073 34.9612 50.8479 35.3356 50.8479 35.7479V35.9458C50.8479 36.3086 50.9073 36.6484 51.026 36.965C51.148 37.2784 51.3212 37.5538 51.5455 37.7913C51.7731 38.0255 52.0485 38.2085 52.3718 38.3405ZM52.1956 35.2581C52.2057 35.1847 52.2183 35.1138 52.2333 35.0453C52.2794 34.8342 52.3487 34.6528 52.4411 34.5011C52.5367 34.346 52.6554 34.2273 52.7973 34.1448C52.9424 34.0591 53.1123 34.0162 53.3069 34.0162C53.5477 34.0162 53.7439 34.0689 53.8957 34.1745C54.0474 34.2768 54.1595 34.4153 54.2321 34.5901C54.3047 34.7616 54.3442 34.9513 54.3509 35.1591V35.2581H52.1956Z" fill="white"/>
    </g>
    <path d="M16.8731 36.5693C16.8731 36.4308 16.8517 36.307 16.8088 36.1982C16.7692 36.086 16.695 35.9855 16.5861 35.8964C16.4806 35.8041 16.3305 35.715 16.1359 35.6292C15.9446 35.5401 15.6972 35.4478 15.3938 35.3521C15.0573 35.2466 14.744 35.1278 14.4537 34.9959C14.1634 34.864 13.9078 34.7106 13.6868 34.5358C13.4691 34.3609 13.2992 34.1598 13.1772 33.9321C13.0552 33.7013 12.9941 33.4341 12.9941 33.1306C12.9941 32.8337 13.0568 32.5633 13.1821 32.3192C13.3108 32.0751 13.4922 31.8657 13.7264 31.6908C13.9606 31.5127 14.236 31.3758 14.5527 31.2802C14.8726 31.1845 15.2255 31.1367 15.6115 31.1367C16.1458 31.1367 16.6076 31.234 16.9968 31.4286C17.3893 31.6232 17.6928 31.8871 17.9072 32.2203C18.1216 32.5534 18.2288 32.9278 18.2288 33.3434H16.8731C16.8731 33.1191 16.8253 32.9212 16.7296 32.7497C16.6373 32.5781 16.4955 32.4429 16.3042 32.3439C16.1161 32.245 15.8786 32.1955 15.5917 32.1955C15.3146 32.1955 15.0837 32.2367 14.899 32.3192C14.7176 32.4017 14.5807 32.5138 14.4883 32.6557C14.3993 32.7975 14.3547 32.9558 14.3547 33.1306C14.3547 33.2625 14.3861 33.3813 14.4488 33.4869C14.5114 33.5891 14.6054 33.6864 14.7308 33.7788C14.8561 33.8678 15.0111 33.952 15.1959 34.0311C15.3838 34.107 15.6016 34.1828 15.8489 34.2587C16.2448 34.3774 16.5911 34.5094 16.8879 34.6545C17.1881 34.7997 17.4372 34.9646 17.6351 35.1493C17.8363 35.334 17.9863 35.5418 18.0853 35.7727C18.1876 36.0036 18.2387 36.2658 18.2387 36.5594C18.2387 36.8694 18.1776 37.1465 18.0556 37.3906C17.9336 37.6347 17.7587 37.8425 17.5312 38.014C17.3036 38.1855 17.0298 38.3158 16.7099 38.4049C16.3932 38.4939 16.0386 38.5385 15.6461 38.5385C15.2964 38.5385 14.9501 38.4923 14.6071 38.3999C14.2673 38.3042 13.9589 38.1625 13.6819 37.9744C13.4048 37.7831 13.1838 37.5423 13.0189 37.2521C12.8539 36.9585 12.7715 36.6155 12.7715 36.223H14.1371C14.1371 36.4505 14.1733 36.6451 14.2459 36.8068C14.3218 36.9651 14.4273 37.0954 14.5625 37.1977C14.7011 37.2966 14.8627 37.3691 15.0474 37.4153C15.2321 37.4615 15.4317 37.4846 15.6461 37.4846C15.9232 37.4846 16.1507 37.4467 16.3289 37.3708C16.5103 37.2917 16.6455 37.1828 16.7346 37.0442C16.827 36.9057 16.8731 36.7474 16.8731 36.5693Z" fill="white"/>
    <path d="M22.3752 37.1668V33.085H23.6914V38.4384H22.4544L22.3752 37.1668ZM22.5435 36.0585L22.9492 36.0486C22.9492 36.4082 22.9096 36.7396 22.8304 37.0431C22.7513 37.3466 22.6276 37.6104 22.4594 37.8348C22.2944 38.0558 22.085 38.2289 21.831 38.3542C21.577 38.4763 21.2769 38.5374 20.9305 38.5374C20.6667 38.5374 20.4259 38.5011 20.2082 38.4285C19.9905 38.3526 19.8024 38.2355 19.6441 38.0772C19.4891 37.9156 19.3687 37.7094 19.283 37.4587C19.1972 37.2047 19.1543 36.8997 19.1543 36.5434V33.085H20.4605V36.5533C20.4605 36.7314 20.4803 36.8798 20.5199 36.9986C20.5627 37.1173 20.6205 37.2146 20.693 37.2905C20.7689 37.3631 20.8563 37.4159 20.9553 37.4488C21.0575 37.4785 21.1664 37.4934 21.2818 37.4934C21.5985 37.4934 21.8475 37.4307 22.0289 37.3054C22.2136 37.1767 22.3456 37.0052 22.4247 36.7908C22.5039 36.5731 22.5435 36.329 22.5435 36.0585Z" fill="white"/>
    <path d="M24.8438 30.8389H26.1549V37.256L26.0263 38.4385H24.8438V30.8389ZM29.5985 35.7074V35.8113C29.5985 36.2104 29.554 36.5766 29.4649 36.9097C29.3791 37.2428 29.2489 37.5314 29.074 37.7755C28.8992 38.0163 28.6815 38.2043 28.4209 38.3396C28.1637 38.4715 27.8619 38.5375 27.5155 38.5375C27.1857 38.5375 26.8987 38.4731 26.6546 38.3445C26.4138 38.2159 26.211 38.0345 26.046 37.8003C25.8812 37.5628 25.7492 37.2841 25.6502 36.9641C25.5513 36.6409 25.4771 36.2879 25.4276 35.9053V35.6233C25.4771 35.2374 25.5513 34.8844 25.6502 34.5645C25.7492 34.2445 25.8812 33.9658 26.046 33.7283C26.211 33.4908 26.4138 33.3078 26.6546 33.1791C26.8954 33.0505 27.1791 32.9862 27.5056 32.9862C27.8553 32.9862 28.1604 33.0538 28.4209 33.189C28.6848 33.3209 28.9025 33.509 29.074 33.7531C29.2489 33.9938 29.3791 34.2808 29.4649 34.614C29.554 34.9438 29.5985 35.3083 29.5985 35.7074ZM28.2874 35.8113V35.7074C28.2874 35.4798 28.2692 35.2654 28.233 35.0642C28.1966 34.8597 28.1373 34.6799 28.0548 34.5249C27.9724 34.3699 27.8602 34.2479 27.7184 34.1588C27.5766 34.0697 27.3984 34.0252 27.184 34.0252C26.9795 34.0252 26.8047 34.0598 26.6596 34.1291C26.5177 34.1983 26.399 34.294 26.3033 34.4161C26.211 34.5381 26.1384 34.6816 26.0856 34.8465C26.0362 35.0114 26.0032 35.1896 25.9867 35.3809V36.1527C26.0098 36.4067 26.0642 36.6359 26.15 36.8404C26.2357 37.0416 26.3627 37.2016 26.5309 37.3204C26.7024 37.4391 26.9234 37.4985 27.1939 37.4985C27.405 37.4985 27.5815 37.4572 27.7233 37.3748C27.8651 37.289 27.9773 37.1703 28.0598 37.0186C28.1422 36.8635 28.2 36.6837 28.233 36.4792C28.2692 36.2748 28.2874 36.0521 28.2874 35.8113Z" fill="white"/>
    <defs>
        <filter id="filter0_d_4695_23836" x="0.5" y="0" width="70" height="70" filterUnits="userSpaceOnUse" color-interpolation-filters="sRGB">
            <feFlood flood-opacity="0" result="BackgroundImageFix"/>
            <feColorMatrix in="SourceAlpha" type="matrix" values="0 0 0 0 0 0 0 0 0 0 0 0 0 0 0 0 0 0 127 0" result="hardAlpha"/>
            <feOffset/>
            <feGaussianBlur stdDeviation="5"/>
            <feComposite in2="hardAlpha" operator="out"/>
            <feColorMatrix type="matrix" values="0 0 0 0 0.174929 0 0 0 0 0.174929 0 0 0 0 0.174929 0 0 0 0.2 0"/>
            <feBlend mode="normal" in2="BackgroundImageFix" result="effect1_dropShadow_4695_23836"/>
            <feBlend mode="normal" in="SourceGraphic" in2="effect1_dropShadow_4695_23836" result="shape"/>
        </filter>
        <linearGradient id="paint0_linear_4695_23836" x1="35.5" y1="10" x2="35.5" y2="60" gradientUnits="userSpaceOnUse">
            <stop offset="0.0860277" stop-color="#552AFF"/>
            <stop offset="0.467484" stop-color="#B96ECD"/>
            <stop offset="0.817588" stop-color="#F2AD9F"/>
        </linearGradient>
    </defs>
</svg>
